<?xml version="1.0" encoding="UTF-8" standalone="no"?>
<!-- Created with Inkscape (http://www.inkscape.org/) -->

<svg
   width="141.72754mm"
   height="23.749866mm"
   viewBox="0 0 502.18419 84.153065"
   id="svg2"
   version="1.1"
   inkscape:version="1.4.4 (1:1.4.4+202605061436+dcaf3e7d9e)"
   sodipodi:docname="eradiate-mitsuba-logo-typo_simple-black.svg"
   inkscape:export-filename="eradiate_typo_dark.png"
   inkscape:export-xdpi="161.77016"
   inkscape:export-ydpi="161.77016"
   xmlns:inkscape="http://www.inkscape.org/namespaces/inkscape"
   xmlns:sodipodi="http://sodipodi.sourceforge.net/DTD/sodipodi-0.dtd"
   xmlns:xlink="http://www.w3.org/1999/xlink"
   xmlns="http://www.w3.org/2000/svg"
   xmlns:svg="http://www.w3.org/2000/svg"
   xmlns:rdf="http://www.w3.org/1999/02/22-rdf-syntax-ns#"
   xmlns:cc="http://creativecommons.org/ns#"
   xmlns:dc="http://purl.org/dc/elements/1.1/">
  <defs
     id="defs4">
    <linearGradient
       gradientTransform="matrix(5.8761422,0,0,5.8761422,-351.44008,-499.66942)"
       inkscape:collect="always"
       xlink:href="#linearGradient5415"
       id="linearGradient5417"
       x1="71.697144"
       y1="117.92717"
       x2="93.84127"
       y2="117.92717"
       gradientUnits="userSpaceOnUse" />
    <linearGradient
       inkscape:collect="always"
       id="linearGradient5415">
      <stop
         style="stop-color:#76de65;stop-opacity:1;"
         offset="0"
         id="stop5411" />
      <stop
         style="stop-color:#647de7;stop-opacity:1"
         offset="1"
         id="stop5413" />
    </linearGradient>
    <linearGradient
       gradientTransform="matrix(5.8761422,0,0,5.8761422,-351.44008,-499.66942)"
       inkscape:collect="always"
       xlink:href="#linearGradient5396"
       id="linearGradient5385"
       x1="71.697067"
       y1="109.63422"
       x2="89.45018"
       y2="109.63422"
       gradientUnits="userSpaceOnUse" />
    <linearGradient
       id="linearGradient5396"
       inkscape:collect="always">
      <stop
         id="stop5392"
         offset="0"
         style="stop-color:#ffef0a;stop-opacity:1" />
      <stop
         id="stop5394"
         offset="1"
         style="stop-color:#ff2978;stop-opacity:1" />
    </linearGradient>
    <linearGradient
       gradientTransform="matrix(5.8761422,0,0,5.8761422,-351.44008,-499.66942)"
       inkscape:collect="always"
       xlink:href="#linearGradient5370-9"
       id="linearGradient5372"
       x1="71.696472"
       y1="100.72492"
       x2="93.838829"
       y2="100.72492"
       gradientUnits="userSpaceOnUse" />
    <linearGradient
       inkscape:collect="always"
       id="linearGradient5370-9">
      <stop
         style="stop-color:#2b74ff;stop-opacity:1"
         offset="0"
         id="stop5366" />
      <stop
         style="stop-color:#e573fd;stop-opacity:1"
         offset="1"
         id="stop5368" />
    </linearGradient>
  </defs>
  <sodipodi:namedview
     id="base"
     pagecolor="#ffffff"
     bordercolor="#666666"
     borderopacity="1.0"
     inkscape:pageopacity="0"
     inkscape:pageshadow="2"
     inkscape:zoom="0.7245556"
     inkscape:cx="24.842814"
     inkscape:cy="50.375706"
     inkscape:document-units="px"
     inkscape:current-layer="layer1"
     showgrid="false"
     fit-margin-top="2"
     fit-margin-left="2"
     fit-margin-right="2"
     fit-margin-bottom="2"
     inkscape:window-width="2560"
     inkscape:window-height="1371"
     inkscape:window-x="0"
     inkscape:window-y="32"
     inkscape:window-maximized="1"
     inkscape:pagecheckerboard="0"
     inkscape:showpageshadow="0"
     inkscape:deskcolor="#d1d1d1" />
  <metadata
     id="metadata7">
    <rdf:RDF>
      <cc:Work
         rdf:about="">
        <dc:format>image/svg+xml</dc:format>
        <dc:type
           rdf:resource="http://purl.org/dc/dcmitype/StillImage" />
      </cc:Work>
    </rdf:RDF>
  </metadata>
  <g
     inkscape:label="Layer 1"
     inkscape:groupmode="layer"
     id="layer1"
     transform="translate(-152.87441,-471.39413)">
    <g
       id="g1766"
       style="stroke:#000000;stroke-width:2.04592;stroke-miterlimit:4;stroke-dasharray:none;stroke-opacity:1"
       transform="matrix(0.42213947,0,0,0.49740626,123.21036,442.17714)">
      <path
         sodipodi:nodetypes="cccccccccccccccsc"
         inkscape:connector-curvature="0"
         id="path5364"
         d="m 71.313742,205.30382 c 0.07341,-3.75333 0.02943,-6.76262 0.08052,-7.33177 0.793574,-8.82086 6.467982,-16.40556 15.108678,-20.19448 2.545782,-1.11635 5.032209,-1.78131 8.518051,-2.27802 0.549419,-0.0781 12.435909,-0.1076 52.112399,-0.12751 l 51.40008,-0.0294 -0.0589,1.062 c -0.25619,4.79116 -1.97299,9.20109 -5.13287,13.18439 -0.77705,0.97957 -2.90241,3.0834 -3.98984,3.94954 -4.66771,3.71773 -10.36968,5.88284 -16.73878,6.35629 -0.73105,0.0588 -13.83377,0.0835 -37.03744,0.0835 -37.953593,8.2e-4 -38.245695,0.003 -42.316455,0.38135 -6.592687,0.61124 -12.04545,2.14997 -15.921175,4.49202 -1.221881,0.73821 -2.074745,1.39387 -3.088681,2.37378 -1.340163,1.29558 -2.923198,3.98297 -2.923198,3.98297 0,0 -0.03527,-4.78778 -0.0111,-5.90465 z"
         style="fill:url(#linearGradient5417);fill-opacity:1;stroke:#000000;stroke-width:2.04592;stroke-linecap:butt;stroke-linejoin:miter;stroke-miterlimit:4;stroke-dasharray:none;stroke-opacity:1" />
      <path
         sodipodi:nodetypes="sscccccccsccccs"
         inkscape:connector-curvature="0"
         id="path5362"
         d="m 71.433558,156.29891 c 0.01756,-3.41598 -0.161009,-5.47003 -0.04113,-7.31262 0.347265,-5.33701 2.125811,-10.03723 5.076392,-13.99139 3.763375,-5.04332 9.051145,-8.03181 15.034994,-8.49683 1.276884,-0.0993 81.227256,-0.0175 81.227256,-0.0175 0,0 -0.0999,2.6639 -0.24268,3.7039 -0.59867,4.35247 -2.31966,8.5444 -4.93384,12.01766 -0.87278,1.15954 -2.59379,2.96493 -3.73705,3.92027 -2.6157,2.18569 -5.8806,3.78783 -9.17742,4.50377 -2.03666,0.44188 -0.53943,0.42249 -31.86649,0.42249 -18.09159,0 -29.392234,0.0295 -30.001119,0.0812 -0.53708,0.047 -1.561283,0.12229 -2.27565,0.17157 -4.554008,0.31673 -8.805756,1.41946 -11.972047,3.10765 -3.537858,1.88624 -7.050909,8.25682 -7.050909,8.25682 0,0 -0.05283,-4.29493 -0.04113,-6.36674 z"
         style="fill:url(#linearGradient5385);fill-opacity:1;stroke:#000000;stroke-width:2.04592;stroke-linecap:butt;stroke-linejoin:miter;stroke-miterlimit:4;stroke-dasharray:none;stroke-opacity:1" />
      <path
         sodipodi:nodetypes="ccscscccccccczccc"
         inkscape:connector-curvature="0"
         id="path4140"
         d="m 71.335004,103.36979 c 0.02943,-7.601378 0.01771,-7.40299 0.530626,-9.719897 0.971256,-4.384963 3.221359,-8.416173 6.528395,-11.696048 4.589032,-4.551493 10.788704,-7.285302 17.750405,-7.827271 0.706727,-0.05869 18.60111,-0.08464 51.72756,-0.08464 h 50.64702 l -0.0528,0.816891 c -0.12988,2.046366 -0.37196,3.534091 -0.84864,5.215792 -1.79822,6.346347 -6.6049,11.938495 -13.10615,15.247462 -3.31397,1.686636 -6.6609,2.67012 -10.89055,3.200272 -0.59808,0.07466 -10.1417,0.115164 -38.37815,0.162757 -20.6701,0.03525 -37.846001,0.08521 -38.168603,0.111689 -0.322588,0.02943 -1.208769,0.08807 -1.969201,0.136364 -5.449837,0.344356 -9.779606,0.672413 -14.129006,2.847889 -4.349417,2.17547 -9.668081,8.58629 -9.668081,8.58629 l 0.02357,-6.9968 z"
         style="fill:url(#linearGradient5372);fill-opacity:1;stroke:#000000;stroke-width:2.04592;stroke-linecap:butt;stroke-linejoin:miter;stroke-miterlimit:4;stroke-dasharray:none;stroke-opacity:1" />
    </g>
    <path
       style="font-weight:bold;font-size:96.7868px;line-height:1.25;font-family:'Franklin Gothic FS';-inkscape-font-specification:'Franklin Gothic FS';text-align:center;letter-spacing:0px;word-spacing:0px;text-anchor:middle;stroke-width:0.937499"
       d="m 262.20083,543.38855 h 12.67907 v -52.65202 l 15.87304,52.65202 h 10.35619 l 16.26018,-52.65202 v 52.65202 h 15.19553 v -64.55679 h -23.5192 l -12.00156,38.61793 -11.32405,-38.61793 h -23.5192 z m 83.23671,0 h 15.09874 v -64.55679 h -15.09874 z m 37.55323,0 h 15.29232 v -51.78094 h 15.96982 v -12.77585 h -47.32875 v 12.77585 h 16.06661 z m 83.43017,-50.32913 c -2.03252,-5.22649 -3.77468,-7.74295 -7.16222,-10.2594 -4.35541,-3.29076 -9.96904,-4.93613 -16.93769,-4.93613 -7.25901,0 -12.58228,1.74216 -16.93769,5.61363 -4.35541,3.87147 -6.5815,9.00117 -6.5815,14.90517 0,6.38793 2.80682,11.7112 7.83973,14.71159 3.58111,2.2261 7.74294,3.58111 14.90517,5.03292 8.61402,1.74216 11.22726,3.48432 11.22726,7.35579 0,4.16183 -3.96825,6.77508 -10.35618,6.77508 -7.16223,0 -11.22727,-2.80682 -13.06622,-9.00117 l -13.9373,3.19396 c 1.83895,6.19436 3.6779,9.19475 7.74294,12.29192 4.83934,3.77469 10.93691,5.61364 18.48628,5.61364 6.77508,0 12.87265,-1.54859 17.03448,-4.25862 5.80721,-3.6779 9.4851,-10.35619 9.4851,-17.13126 0,-6.19436 -2.9036,-11.61442 -8.32366,-15.29232 -3.29075,-2.22609 -7.25901,-3.58111 -16.93769,-5.51685 -6.96865,-1.4518 -9.29153,-3.00039 -9.29153,-6.77507 0,-3.58111 3.19396,-5.71042 8.8076,-5.71042 6.09756,0 8.90438,1.93573 11.22726,7.64615 z m 62.23382,-14.22766 h -12.87265 v 40.2633 c 0,5.51685 -0.38714,7.64616 -1.83895,9.48511 -1.64537,2.12931 -5.32327,3.48432 -9.4851,3.48432 -4.06505,0 -7.45259,-1.25822 -9.09796,-3.58111 -1.35502,-1.93573 -1.83895,-4.16183 -1.83895,-9.38832 v -40.2633 h -16.35697 v 40.2633 c 0,9.48511 1.64538,14.80838 5.71042,18.77664 4.54898,4.35541 11.13048,6.48472 20.22844,6.48472 8.51724,0 15.00196,-2.03252 19.55094,-6.00078 4.54897,-4.06505 6.00078,-8.71082 6.00078,-19.26058 z m 12.00158,64.55679 h 30.10069 c 7.93652,0 13.35658,-1.4518 17.32484,-4.83934 3.6779,-3.19396 5.90399,-7.93652 5.90399,-12.87264 0,-4.54898 -1.93573,-8.90439 -5.22648,-11.90478 -2.32289,-2.12931 -4.16183,-2.9036 -8.22688,-3.96826 7.93652,-2.41967 11.7112,-7.06543 11.7112,-14.32444 0,-5.03292 -2.03252,-9.38832 -6.00078,-12.4855 -3.77468,-3.09718 -7.83973,-4.16183 -15.48589,-4.16183 h -30.10069 z m 15.09874,-39.00508 V 490.2526 h 10.35619 c 5.61363,0 6.67829,0.29036 8.42045,1.74216 1.35501,1.25823 2.22609,3.09718 2.22609,5.1297 0,2.32288 -1.06465,4.54898 -2.80681,5.80721 -1.4518,1.06465 -3.09718,1.4518 -6.77508,1.4518 z m 0,27.1003 V 515.9011 H 568.047 c 6.48472,0 10.16262,2.80682 10.16262,7.64616 0,2.61324 -1.35502,5.32327 -3.38754,6.5815 -1.64538,1.06465 -3.48433,1.35501 -7.45258,1.35501 z m 40.94099,11.90478 h 13.25979 l 4.06505,-13.25979 h 20.80916 l 3.96826,13.25979 h 16.26018 l -20.22844,-64.55679 h -17.51841 z m 20.90595,-25.16457 6.87186,-22.64811 6.87186,22.64811 z"
       id="text1"
       aria-label="MITSUBA" />
    <path
       style="font-weight:bold;font-size:100.903px;line-height:1.25;font-family:'Franklin Gothic FS';-inkscape-font-specification:'Franklin Gothic FS Bold';text-align:center;letter-spacing:0px;word-spacing:0px;text-anchor:middle;stroke-width:0.937499;fill:#8a8a8a;fill-opacity:1"
       d="m 225.21491,555.54721 h 13.92461 v -84.1531 h -13.92461 z"
       id="text2"
       aria-label="|" />
  </g>
</svg>
